<?xml version="1.0" encoding="UTF-8" standalone="no"?>
<!-- Created with Inkscape (http://www.inkscape.org/) -->

<svg
   xmlns:osb="http://www.openswatchbook.org/uri/2009/osb"
   xmlns:dc="http://purl.org/dc/elements/1.1/"
   xmlns:cc="http://creativecommons.org/ns#"
   xmlns:rdf="http://www.w3.org/1999/02/22-rdf-syntax-ns#"
   xmlns:svg="http://www.w3.org/2000/svg"
   xmlns="http://www.w3.org/2000/svg"
   xmlns:sodipodi="http://sodipodi.sourceforge.net/DTD/sodipodi-0.dtd"
   xmlns:inkscape="http://www.inkscape.org/namespaces/inkscape"
   width="60"
   height="60"
   viewBox="0 0 60.000001 60.000001"
   id="svg2"
   version="1.1"
   inkscape:version="0.91 r13725"
   sodipodi:docname="drawing.svg">
  <defs
     id="defs4">
    <linearGradient
       id="linearGradient5584"
       osb:paint="solid">
      <stop
         style="stop-color:#000000;stop-opacity:1;"
         offset="0"
         id="stop5586" />
    </linearGradient>
  </defs>
  <sodipodi:namedview
     id="base"
     pagecolor="#ffffff"
     bordercolor="#666666"
     borderopacity="1.0"
     inkscape:pageopacity="0.0"
     inkscape:pageshadow="2"
     inkscape:zoom="3.959798"
     inkscape:cx="12.852315"
     inkscape:cy="25.421249"
     inkscape:document-units="px"
     inkscape:current-layer="layer1"
     showgrid="false"
     units="px"
     inkscape:window-width="1366"
     inkscape:window-height="688"
     inkscape:window-x="0"
     inkscape:window-y="0"
     inkscape:window-maximized="1" />
  <metadata
     id="metadata7">
    <rdf:RDF>
      <cc:Work
         rdf:about="">
        <dc:format>image/svg+xml</dc:format>
        <dc:type
           rdf:resource="http://purl.org/dc/dcmitype/StillImage" />
        <dc:title></dc:title>
      </cc:Work>
    </rdf:RDF>
  </metadata>
  <g
     inkscape:label="Layer 1"
     inkscape:groupmode="layer"
     id="layer1"
     transform="translate(0,-992.36216)">
    <ellipse
       style="fill:#ffffff;fill-opacity:0;fill-rule:evenodd;stroke:#000000;stroke-width:0.1;stroke-linecap:butt;stroke-linejoin:miter;stroke-miterlimit:4;stroke-dasharray:none;stroke-opacity:1"
       id="path3336"
       cx="30.430845"
       cy="1022.3101"
       rx="29.420692"
       ry="28.789349" />
    <ellipse
       style="fill:#363940;fill-opacity:0.11848342;stroke:none;stroke-width:0.1;stroke-miterlimit:4;stroke-dasharray:none;stroke-opacity:0.24170616"
       id="path5717"
       cx="4.0406103"
       cy="1035.0634"
       rx="0.50507629"
       ry="0.63134533" />
  </g>
  <g
     inkscape:groupmode="layer"
     id="layer2"
     inkscape:label="Layer 2">
    <g
       id="g5636"
       transform="translate(-1.4826206,0.45303781)">
      <path
         style="fill:#eaecf0"
         d="M 28.5,36 22.562607,30 28.5,24 c 5.30548,-5.361424 8.5,-7.346328 8.5,-5.281445 0,0.395205 -2.347128,3.095205 -5.21584,6 L 26.56832,30 31.78416,35.281445 C 34.652872,38.18624 37,40.88624 37,41.281445 37,43.346328 33.80548,41.361424 28.5,36 Z"
         id="path5654"
         inkscape:connector-curvature="0" />
      <path
         style="fill:#dee1e8"
         d="M 28.978582,36 22.5,30 28.978582,24 c 3.56322,-3.3 6.82572,-6 7.25,-6 1.92294,0 0.336428,2.227727 -4.928199,6.920013 L 25.600765,30 31.300383,35.079987 C 36.56501,39.772273 38.151522,42 36.228582,42 c -0.42428,0 -3.68678,-2.7 -7.25,-6 z"
         id="path5652"
         inkscape:connector-curvature="0" />
      <path
         style="fill:#d6d9e2"
         d="m 29.22705,36.216748 c -3.450122,-3.144211 -6.262622,-5.999294 -6.25,-6.344627 C 23.024416,28.576239 36.117253,17.784925 36.79372,18.484213 37.182174,18.885771 34.8,21.648858 31.5,24.624408 l -6,5.410089 5.75,5.06559 c 5.258466,4.632563 6.94813,6.953033 5,6.866661 -0.4125,-0.01829 -3.572827,-2.605788 -7.02295,-5.75 z"
         id="path5650"
         inkscape:connector-curvature="0" />
      <path
         style="fill:#c7ccd8"
         d="m 29.02892,35.959614 c -5.592344,-5.138591 -6.271315,-6.129095 -5,-7.29416 10.054812,-9.214477 12.105394,-10.864474 12.728171,-10.241696 0.399449,0.399449 -1.969986,3.167514 -5.26541,6.151256 L 25.5,30 l 5.763597,5.25 c 5.371041,4.892425 6.802847,6.817086 4.986403,6.70282 -0.4125,-0.02595 -3.661986,-2.722891 -7.22108,-5.993206 z"
         id="path5648"
         inkscape:connector-curvature="0" />
      <path
         style="fill:#bdc2d0"
         d="M 29.113459,35.89144 22.726918,30 29.113459,24.10856 c 3.512598,-3.240292 6.750008,-5.672686 7.194246,-5.405319 0.444238,0.267366 -1.805762,2.918514 -5,5.89144 L 25.5,30 l 5.807705,5.405319 c 3.194238,2.972926 5.444238,5.624074 5,5.89144 -0.444238,0.267367 -3.681648,-2.165027 -7.194246,-5.405319 z"
         id="path5646"
         inkscape:connector-curvature="0" />
      <path
         style="fill:#b4baca"
         d="M 29.726837,36.334315 C 26.577077,33.307482 24,30.45704 24,30 24,28.685896 35.368068,18.109444 36.216753,18.633961 c 0.419694,0.259385 -1.819883,2.922856 -4.976837,5.918824 L 25.5,30 l 5.739916,5.447215 c 3.156954,2.995968 5.396531,5.659439 4.976837,5.918824 -0.419694,0.259385 -3.340156,-2.004891 -6.489916,-5.031724 z"
         id="path5644"
         inkscape:connector-curvature="0" />
      <path
         style="fill:#99a2b8"
         d="M 29,35.5 23.56832,30 29,24.5 C 31.987424,21.475 34.88168,19 35.43168,19 35.98168,19 33.987424,21.475 31,24.5 L 25.56832,30 31,35.5 c 2.987424,3.025 4.98168,5.5 4.43168,5.5 -0.55,0 -3.444256,-2.475 -6.43168,-5.5 z"
         id="path5642"
         inkscape:connector-curvature="0" />
      <path
         style="fill:#939cb4"
         d="M 29.162059,35.550986 23.5,30.101973 28,25.474054 c 2.475,-2.545355 5.4,-5.07824 6.5,-5.628633 1.1,-0.550392 -0.547927,1.509228 -3.662059,4.576933 L 25.175882,30 l 5.662059,5.479847 c 3.114132,3.013916 5.284986,5.488916 4.824118,5.5 -0.460867,0.01108 -3.385867,-2.431903 -6.5,-5.428861 z"
         id="path5640"
         inkscape:connector-curvature="0" />
      <path
         style="fill:#8892ac"
         d="M 29.511953,35.637487 C 22.678518,29.522018 22.628831,29.85821 31.398006,22.876195 36.215878,19.040206 36.16587,19.125454 30.5,24.406994 L 24.5,30 l 6,5.45407 c 3.3,2.999738 5.775,5.473926 5.5,5.498195 -0.275,0.02427 -3.194621,-2.367381 -6.488047,-5.314778 z"
         id="path5638"
         inkscape:connector-curvature="0" />
    </g>
  </g>
</svg>
