<?xml version="1.0" encoding="UTF-8" standalone="no"?>
<!-- Created with Inkscape (http://www.inkscape.org/) -->

<svg
   xmlns:dc="http://purl.org/dc/elements/1.1/"
   xmlns:cc="http://creativecommons.org/ns#"
   xmlns:rdf="http://www.w3.org/1999/02/22-rdf-syntax-ns#"
   xmlns:svg="http://www.w3.org/2000/svg"
   xmlns="http://www.w3.org/2000/svg"
   xmlns:sodipodi="http://sodipodi.sourceforge.net/DTD/sodipodi-0.dtd"
   xmlns:inkscape="http://www.inkscape.org/namespaces/inkscape"
   id="svg3507"
   version="1.1"
   inkscape:version="0.91 r13725"
   width="1150"
   height="955"
   viewBox="0 0 1150 955"
   sodipodi:docname="Ellipse1.svg">
  <metadata
     id="metadata3513">
    <rdf:RDF>
      <cc:Work
         rdf:about="">
        <dc:format>image/svg+xml</dc:format>
        <dc:type
           rdf:resource="http://purl.org/dc/dcmitype/StillImage" />
        <dc:title></dc:title>
      </cc:Work>
    </rdf:RDF>
  </metadata>
  <defs
     id="defs3511" />
  <sodipodi:namedview
     pagecolor="#ffffff"
     bordercolor="#666666"
     borderopacity="1"
     objecttolerance="10"
     gridtolerance="10"
     guidetolerance="10"
     inkscape:pageopacity="0"
     inkscape:pageshadow="2"
     inkscape:window-width="1366"
     inkscape:window-height="688"
     id="namedview3509"
     showgrid="false"
     inkscape:zoom="0.34948105"
     inkscape:cx="277.83536"
     inkscape:cy="471.61069"
     inkscape:window-x="0"
     inkscape:window-y="0"
     inkscape:window-maximized="1"
     inkscape:current-layer="svg3507" />
  <path
     id="path3341"
     style="fill:none;fill-rule:evenodd;stroke:#000000;stroke-width:1px;stroke-linecap:butt;stroke-linejoin:miter;stroke-opacity:1"
     d="m 106.04995,432.27194 72.0009,-100.4499 52.37099,-64.26536 43.79737,-48.91699 58.91078,-57.49063 58.79858,-49.74454 57.24516,-36.542228 37.09272,-19.61938 c 25.09623,-11.751883 46.10622,-22.083333 68.47681,-28.705003 l 34.03852,-10.351464 c 23.12103,-6.173631 47.09857,-10.8507525 71.53102,-12.3747701 17.41609,-3.19742492 34.83217,-2.5342334 52.24826,-2.023305 24.16044,-0.9698448 48.32087,3.720471 72.48131,8.3281591 20.11741,3.834741 39.50565,10.586172 58.67585,18.209746 27.3971,12.551788 55.44146,24.459726 79.98191,42.724346 25.68722,17.928935 46.41657,36.849439 67.48442,55.702249 24.99855,27.99633 50.49345,55.85082 69.02735,85.69417 14.9124,23.82853 29.1094,48.89526 44.0217,74.62735 12.2377,29.44665 25.1707,58.90131 32.7516,90.21064 7.3113,36.37584 13.4197,73.15264 12.2521,112.3548 -0.6773,39.31477 -5.9843,78.62954 -18.0976,117.94431 -15.2799,43.42556 -36.2354,85.71601 -65.8082,126.28299 -22.6907,28.06659 -44.7026,56.43491 -75.70038,80.80947 -27.58661,24.92751 -59.42397,45.12936 -93.54191,65.58385 -38.39487,18.0153 -76.78973,37.00952 -115.1846,45.82066 -36.75672,9.01369 -73.63403,17.66561 -112.26365,21.0606 -35.94259,3.78459 -71.88518,5.83616 -107.82778,7.74609 L 451.43197,952.62955 C 409.60959,948.00465 352.20584,943.99022 324.6791,936.56584 282.63592,928.91876 240.6952,920.55443 199.59185,906.32848 167.61178,894.15385 135.7005,881.86458 106.51982,865.02429 83.143116,848.8341 59.667754,832.7623 40.93598,810.99819 26.902189,794.44189 18.132136,775.62971 10.719667,756.2357 3.9492921,734.41446 -1.5715455,712.34331 1.0730196,688.63908 1.5237052,660.07436 11.142679,631.50964 18.802358,602.94492 c 8.084671,-28.5596 21.998784,-56.28642 36.664959,-83.9058 l 25.524447,-46.70778 z" />
</svg>
