<?xml version="1.0" standalone="no"?>
<!DOCTYPE svg PUBLIC "-//W3C//DTD SVG 20010904//EN"
 "http://www.w3.org/TR/2001/REC-SVG-20010904/DTD/svg10.dtd">
<svg version="1.0" xmlns="http://www.w3.org/2000/svg"
 width="512.000000pt" height="512.000000pt" viewBox="0 0 512.000000 512.000000"
 preserveAspectRatio="xMidYMid meet">
<metadata>
Created by potrace 1.11, written by Peter Selinger 2001-2013
</metadata>
<g transform="translate(0.000000,512.000000) scale(0.100000,-0.100000)"
fill="#000000" stroke="none">
<path d="M1185 5102 c-106 -51 -152 -169 -105 -267 41 -87 102 -122 214 -126
68 -2 68 -2 45 -20 -13 -10 -35 -24 -49 -31 -123 -64 -334 -226 -479 -368
-338 -332 -588 -777 -687 -1220 -2 -11 -6 -30 -9 -42 -36 -161 -50 -312 -50
-528 0 -182 7 -286 26 -385 6 -27 12 -68 15 -90 3 -22 23 -103 44 -180 145
-531 441 -972 896 -1333 50 -40 216 -147 299 -194 278 -155 560 -249 895 -300
51 -8 182 -13 330 -13 209 0 266 3 385 23 77 13 161 30 187 38 25 8 57 17 70
19 98 18 394 135 529 210 45 25 83 45 86 45 7 0 185 121 248 168 171 130 357
315 487 487 235 311 422 747 474 1110 3 22 7 51 9 64 19 114 26 444 12 571 -7
66 -8 74 -22 165 -13 88 -64 295 -99 399 -188 557 -584 1050 -1084 1346 -39
24 -71 45 -69 47 2 1 44 5 93 9 112 7 164 25 208 74 71 79 73 187 3 267 -53
60 -94 73 -222 68 -185 -6 -356 -51 -530 -140 l-108 -55 -56 14 c-31 8 -74 17
-96 22 -22 4 -42 8 -45 9 -10 2 -96 16 -135 21 -22 2 -56 7 -75 10 -123 18
-531 6 -657 -20 -16 -3 -41 -8 -58 -11 -34 -5 -53 -9 -111 -23 -38 -8 -48 -6
-136 37 -171 85 -335 127 -527 137 -91 4 -112 2 -146 -14z"/>
</g>
</svg>
